<?xml version="1.0" encoding="UTF-8" standalone="no"?>
<svg
   xmlns:dc="http://purl.org/dc/elements/1.1/"
   xmlns:cc="http://creativecommons.org/ns#"
   xmlns:rdf="http://www.w3.org/1999/02/22-rdf-syntax-ns#"
   xmlns:svg="http://www.w3.org/2000/svg"
   xmlns="http://www.w3.org/2000/svg"
   width="36"
   height="36"
   viewBox="0 0 36 36"
   fill="none"
   version="1.1"
   id="svg12">
  <metadata
     id="metadata18">
    <rdf:RDF>
      <cc:Work
         rdf:about="">
        <dc:format>image/svg+xml</dc:format>
        <dc:type
           rdf:resource="http://purl.org/dc/dcmitype/StillImage" />
        <dc:title></dc:title>
      </cc:Work>
    </rdf:RDF>
  </metadata>
  <defs
     id="defs16" />
  <rect
     width="36"
     height="36"
     rx="6.75"
     fill="#2865e9"
     id="rect2"
     x="0"
     y="0" />
  <path
     d="m 6.80004,22.3194 c 0.31078,1.7656 1.99054,2.9448 3.75186,2.634 1.7613,-0.3115 2.9377,-1.9957 2.6276,-3.7613 -0.3108,-1.7656 0.8662,-3.4498 2.6276,-3.7613 1.7613,-0.3114 2.9376,-1.9957 2.6275,-3.7613 -0.3107,-1.7656 -1.9905,-2.9447 -3.7518,-2.634 -1.7614,0.3108 -2.9391,1.9957 -2.6283,3.7613 0.3108,1.7656 -0.8663,3.4498 -2.62759,3.7613 -1.76133,0.3114 -2.93765,1.9957 -2.62687,3.7613 z"
     fill="#ffffff"
     id="path4" />
  <path
     d="m 14.7922,22.3189 c 0.3108,1.7656 1.9905,2.9448 3.7519,2.634 1.7613,-0.3114 2.9376,-1.9957 2.6276,-3.7613 -0.3108,-1.7656 0.8662,-3.4498 2.6275,-3.7613 1.7614,-0.3114 2.9377,-1.9956 2.6276,-3.7612 -0.3108,-1.7656 -1.9905,-2.9448 -3.7519,-2.6341 -1.7613,0.3115 -2.9376,1.9957 -2.6275,3.7613 0.3107,1.7656 -0.8663,3.4499 -2.6276,3.7613 -1.7613,0.3115 -2.9384,1.9957 -2.6276,3.7613 z"
     fill="#ffffff"
     id="path6" />
  <path
     d="m 26.0113,25.0147 c 1.7886,0 3.2386,-1.4538 3.2386,-3.2471 0,-1.7933 -1.45,-3.2471 -3.2386,-3.2471 -1.7886,0 -3.2386,1.4538 -3.2386,3.2471 0,1.7933 1.45,3.2471 3.2386,3.2471 z"
     fill="#ffffff"
     id="path8" />
</svg>
